<svg xmlns="http://www.w3.org/2000/svg" width="13" height="13" viewBox="0 0 13 13">
  <g id="Group_487" data-name="Group 487" transform="translate(-208 -555)">
    <g id="Path_27" data-name="Path 27" transform="translate(208 555)" fill="#fff">
      <path d="M 6.5 12.5 C 3.191590070724487 12.5 0.5 9.808409690856934 0.5 6.5 C 0.5 3.191590070724487 3.191590070724487 0.5 6.5 0.5 C 9.808409690856934 0.5 12.5 3.191590070724487 12.5 6.5 C 12.5 9.808409690856934 9.808409690856934 12.5 6.5 12.5 Z" stroke="none"/>
      <path d="M 6.5 1 C 3.467289924621582 1 1 3.467289924621582 1 6.5 C 1 9.532710075378418 3.467289924621582 12 6.5 12 C 9.532710075378418 12 12 9.532710075378418 12 6.5 C 12 3.467289924621582 9.532710075378418 1 6.5 1 M 6.5 0 C 10.0898494720459 0 13 2.910149574279785 13 6.5 C 13 10.0898494720459 10.0898494720459 13 6.5 13 C 2.910149574279785 13 0 10.0898494720459 0 6.5 C 0 2.910149574279785 2.910149574279785 0 6.5 0 Z" stroke="none" fill="gray"/>
    </g>
    <g id="Path_94" data-name="Path 94" transform="translate(212 559)" fill="gray">
      <path d="M 2.5 4.5 C 1.397199988365173 4.5 0.5 3.602799892425537 0.5 2.5 C 0.5 1.397199988365173 1.397199988365173 0.5 2.5 0.5 C 3.602799892425537 0.5 4.5 1.397199988365173 4.5 2.5 C 4.5 3.602799892425537 3.602799892425537 4.5 2.5 4.5 Z" stroke="none"/>
      <path d="M 2.5 1 C 1.672899961471558 1 1 1.672899961471558 1 2.5 C 1 3.327100038528442 1.672899961471558 4 2.5 4 C 3.327100038528442 4 4 3.327100038528442 4 2.5 C 4 1.672899961471558 3.327100038528442 1 2.5 1 M 2.5 0 C 3.880710124969482 0 5 1.119290113449097 5 2.5 C 5 3.880710124969482 3.880710124969482 5 2.5 5 C 1.119290113449097 5 0 3.880710124969482 0 2.5 C 0 1.119290113449097 1.119290113449097 0 2.5 0 Z" stroke="none" fill="gray"/>
    </g>
  </g>
</svg>
