<svg xmlns="http://www.w3.org/2000/svg" width="20.854" height="20" viewBox="0 0 20.854 20">
  <path id="Icon_material-access-alarm" data-name="Icon material-access-alarm" d="M23.854,6.623l-4.8-3.833L17.713,4.309l4.8,3.833ZM9.131,4.309,7.8,2.79,3,6.613,4.345,8.133,9.131,4.309Zm4.817,4.578H12.384v5.958l4.953,2.83.782-1.221L13.948,14.1Zm-.521-3.972a9.17,9.17,0,0,0-9.384,8.937,9.163,9.163,0,0,0,9.384,8.937,9.17,9.17,0,0,0,9.384-8.937A9.17,9.17,0,0,0,13.427,4.915Zm0,15.889a7.126,7.126,0,0,1-7.3-6.951,7.126,7.126,0,0,1,7.3-6.951,7.126,7.126,0,0,1,7.3,6.951A7.126,7.126,0,0,1,13.427,20.8Z" transform="translate(-3 -2.79)" fill="#006fff"/>
</svg>
