<svg xmlns="http://www.w3.org/2000/svg" width="15.474" height="21" viewBox="0 0 15.474 21">
  <path id="Icon_metro-keyboard-voice" data-name="Icon metro-keyboard-voice" d="M16.734,19.69a3.309,3.309,0,0,0,3.3-3.316l.011-6.632a3.316,3.316,0,0,0-6.632,0v6.632a3.318,3.318,0,0,0,3.316,3.316Zm5.858-3.316a5.732,5.732,0,0,1-5.858,5.637,5.735,5.735,0,0,1-5.858-5.637H9A7.71,7.71,0,0,0,15.629,23.8v3.625H17.84V23.8a7.71,7.71,0,0,0,6.632-7.427H22.592Z" transform="translate(-8.997 -6.427)" fill="#006fff"/>
</svg>
