<svg xmlns="http://www.w3.org/2000/svg" width="22" height="23.467" viewBox="0 0 22 23.467">
  <path id="Icon_awesome-transgender-alt" data-name="Icon awesome-transgender-alt" d="M21.45,0H17.829a.551.551,0,0,0-.39.94l.775.775-3.7,3.7a6.607,6.607,0,0,0-7.031,0l-.756-.756.908-.908a.55.55,0,0,0,0-.779l-1.3-1.3a.55.55,0,0,0-.779,0l-.907.907L3.781,1.71,4.556.935A.545.545,0,0,0,4.171,0H.55A.552.552,0,0,0,0,.55V4.171a.551.551,0,0,0,.94.39l.775-.775.871.871-.907.907a.55.55,0,0,0,0,.779l1.3,1.3a.55.55,0,0,0,.779,0l.908-.908.756.756A6.5,6.5,0,0,0,4.4,11a6.6,6.6,0,0,0,5.133,6.435V18.7H7.883a.552.552,0,0,0-.55.55v1.833a.552.552,0,0,0,.55.55h1.65v1.283a.552.552,0,0,0,.55.55h1.833a.552.552,0,0,0,.55-.55V21.633h1.65a.552.552,0,0,0,.55-.55V19.25a.552.552,0,0,0-.55-.55h-1.65V17.435a6.6,6.6,0,0,0,4.12-9.95l3.7-3.7.775.775a.55.55,0,0,0,.94-.39V.55A.552.552,0,0,0,21.45,0ZM11,14.667A3.667,3.667,0,1,1,14.667,11,3.672,3.672,0,0,1,11,14.667Z" fill="#006fff"/>
</svg>
