<svg xmlns="http://www.w3.org/2000/svg" width="21.471" height="20.244" viewBox="0 0 21.471 20.244">
  <g id="Icon_ionic-md-thumbs-down" data-name="Icon ionic-md-thumbs-down" transform="translate(0.75 0.75)">
    <path id="Path_19" data-name="Path 19" d="M16.145,4.5H7.888A1.761,1.761,0,0,0,6.246,5.623L3.5,12.124a1.837,1.837,0,0,0-.125.672v1.853A2.118,2.118,0,0,0,5.19,16.79h5.727L10.053,20.7l-.029.288a1.392,1.392,0,0,0,.4.975l.96.965,6.059-6.106a1.848,1.848,0,0,0,.528-1.3V6.305A1.81,1.81,0,0,0,16.145,4.5Z" transform="translate(-3.375 -4.5)" fill="none" stroke="#006fff" stroke-width="1.5"/>
    <path id="Path_20" data-name="Path 20" d="M28.125,4.5H31.2V15.254H28.125Z" transform="translate(-11.226 -4.5)" fill="none" stroke="#006fff" stroke-width="1.5"/>
  </g>
</svg>
