<svg xmlns="http://www.w3.org/2000/svg" width="20.995" height="21" viewBox="0 0 20.995 21">
  <path id="Icon_ionic-ios-settings" data-name="Icon ionic-ios-settings" d="M23.761,15a2.7,2.7,0,0,1,1.733-2.52,10.709,10.709,0,0,0-1.3-3.122,2.738,2.738,0,0,1-1.1.235A2.7,2.7,0,0,1,20.634,5.8a10.676,10.676,0,0,0-3.116-1.3,2.7,2.7,0,0,1-5.041,0A10.709,10.709,0,0,0,9.355,5.8,2.7,2.7,0,0,1,6.889,9.59a2.649,2.649,0,0,1-1.1-.235A10.945,10.945,0,0,0,4.5,12.482a2.7,2.7,0,0,1,.005,5.041,10.709,10.709,0,0,0,1.3,3.122A2.7,2.7,0,0,1,9.36,24.2a10.771,10.771,0,0,0,3.122,1.3,2.694,2.694,0,0,1,5.03,0,10.709,10.709,0,0,0,3.122-1.3,2.7,2.7,0,0,1,3.559-3.559,10.771,10.771,0,0,0,1.3-3.122A2.714,2.714,0,0,1,23.761,15Zm-8.715,4.368a4.374,4.374,0,1,1,4.374-4.374A4.373,4.373,0,0,1,15.046,19.366Z" transform="translate(-4.5 -4.5)" fill="#c4c4c4"/>
</svg>
