<svg xmlns="http://www.w3.org/2000/svg" width="27" height="13.5" viewBox="0 0 27 13.5">
  <path id="Icon_awesome-language" data-name="Icon awesome-language" d="M6.417,12.665c-.148-.51-.329-1.4-.329-1.4H6.067s-.181.89-.329,1.4l-.468,1.582H6.877ZM25.988,6.75H14.175v13.5H25.988A1.01,1.01,0,0,0,27,19.237V7.763A1.01,1.01,0,0,0,25.988,6.75Zm-1.013,5.063a.508.508,0,0,1-.506.506h-.481a7.559,7.559,0,0,1-1.8,2.949,13.078,13.078,0,0,0,1.1.759.508.508,0,0,1,.173.683l-.333.586a.508.508,0,0,1-.7.181,14.677,14.677,0,0,1-1.493-1.05,14.878,14.878,0,0,1-1.493,1.05.508.508,0,0,1-.7-.181L18.4,16.71a.506.506,0,0,1,.177-.683,12.034,12.034,0,0,0,1.1-.759,9.79,9.79,0,0,1-.886-1.084.5.5,0,0,1,.156-.721l.274-.165.308-.181a.51.51,0,0,1,.675.143,8.045,8.045,0,0,0,.734.882A6.453,6.453,0,0,0,22.2,12.319H17.381a.508.508,0,0,1-.506-.506v-.675a.508.508,0,0,1,.506-.506h2.7V9.956a.508.508,0,0,1,.506-.506h.675a.508.508,0,0,1,.506.506v.675h2.7a.508.508,0,0,1,.506.506ZM0,7.763V19.237A1.01,1.01,0,0,0,1.012,20.25H12.825V6.75H1.012A1.01,1.01,0,0,0,0,7.763Zm2.485,9.117L4.911,9.745A.5.5,0,0,1,5.392,9.4H6.763a.514.514,0,0,1,.481.342l2.426,7.134a.508.508,0,0,1-.481.671H8.222a.506.506,0,0,1-.485-.363l-.4-1.346H4.8l-.384,1.342a.51.51,0,0,1-.485.367H2.966a.509.509,0,0,1-.481-.671Z" transform="translate(0 -6.75)" fill="#006fff"/>
</svg>
