<svg xmlns="http://www.w3.org/2000/svg" width="17.143" height="24" viewBox="0 0 17.143 24">
  <path id="Icon_ionic-md-sync" data-name="Icon ionic-md-sync" d="M15.321,5.523V2.25L11.036,6.614l4.286,4.364V7.7A6.507,6.507,0,0,1,21.75,14.25,6.591,6.591,0,0,1,21,17.3l1.554,1.582A8.721,8.721,0,0,0,15.321,5.523Zm0,15.273A6.507,6.507,0,0,1,8.893,14.25a6.6,6.6,0,0,1,.75-3.055L8.089,9.614A8.523,8.523,0,0,0,6.75,14.25a8.676,8.676,0,0,0,8.571,8.727V26.25l4.286-4.364-4.286-4.364Z" transform="translate(-6.75 -2.25)" fill="#006fff"/>
</svg>
