<svg xmlns="http://www.w3.org/2000/svg" width="16.101" height="20" viewBox="0 0 16.101 20">
  <path id="Icon_ionic-md-share" data-name="Icon ionic-md-share" d="M17.91,17.265a2.3,2.3,0,0,0-1.749.754L9.747,13.848a3.775,3.775,0,0,0,.09-.7,3.774,3.774,0,0,0-.09-.7l6.324-4.12a2.542,2.542,0,0,0,1.839.8A2.875,2.875,0,0,0,20.6,6.109,2.876,2.876,0,0,0,17.91,3.094a2.875,2.875,0,0,0-2.691,3.015,3.753,3.753,0,0,0,.09.7l-6.324,4.12a2.543,2.543,0,0,0-1.839-.8A2.841,2.841,0,0,0,4.5,13.144a2.875,2.875,0,0,0,2.691,3.015,2.543,2.543,0,0,0,1.839-.8L15.4,19.526a2.812,2.812,0,0,0-.09.653,2.773,2.773,0,0,0,2.6,2.914,2.773,2.773,0,0,0,2.6-2.914A2.773,2.773,0,0,0,17.91,17.265Z" transform="translate(-4.5 -3.094)" fill="#006fff"/>
</svg>
