<svg xmlns="http://www.w3.org/2000/svg" width="21.461" height="20.243" viewBox="0 0 21.461 20.243">
  <g id="Icon_ionic-md-thumbs-up" data-name="Icon ionic-md-thumbs-up" transform="translate(0.75 1.063)">
    <path id="Path_17" data-name="Path 17" d="M13.074,22.93h8.255a1.761,1.761,0,0,0,1.641-1.123l2.74-6.5a1.837,1.837,0,0,0,.125-.672V12.784a2.117,2.117,0,0,0-1.814-2.141H18.3l.864-3.912.029-.288a1.391,1.391,0,0,0-.4-.974L17.825,4.5l-6.047,6.11a1.847,1.847,0,0,0-.528,1.3v9.215A1.81,1.81,0,0,0,13.074,22.93Z" transform="translate(-5.875 -4.5)" fill="none" stroke="#006fff" stroke-width="1.5"/>
    <path id="Path_18" data-name="Path 18" d="M3.375,15.75H6.447V26.5H3.375Z" transform="translate(-3.375 -8.071)" fill="none" stroke="#006fff" stroke-width="1.5"/>
  </g>
</svg>
