<svg xmlns="http://www.w3.org/2000/svg" xmlns:xlink="http://www.w3.org/1999/xlink" width="53.922" height="53.931" viewBox="0 0 53.922 53.931">
  <defs>
    <filter id="Icon_ionic-ios-settings" x="0" y="0" width="53.922" height="53.931" filterUnits="userSpaceOnUse">
      <feOffset dy="3" input="SourceAlpha"/>
      <feGaussianBlur stdDeviation="3" result="blur"/>
      <feFlood flood-opacity="0.161"/>
      <feComposite operator="in" in2="blur"/>
      <feComposite in="SourceGraphic"/>
    </filter>
  </defs>
  <g transform="matrix(1, 0, 0, 1, 0, 0)" filter="url(#Icon_ionic-ios-settings)">
    <path id="Icon_ionic-ios-settings-2" data-name="Icon ionic-ios-settings" d="M37.457,22.461a4.623,4.623,0,0,1,2.965-4.313,18.322,18.322,0,0,0-2.217-5.342,4.684,4.684,0,0,1-1.88.4,4.612,4.612,0,0,1-4.219-6.492A18.267,18.267,0,0,0,26.774,4.5a4.618,4.618,0,0,1-8.625,0,18.323,18.323,0,0,0-5.342,2.217,4.612,4.612,0,0,1-4.219,6.492,4.532,4.532,0,0,1-1.88-.4A18.728,18.728,0,0,0,4.5,18.158a4.621,4.621,0,0,1,.009,8.625,18.323,18.323,0,0,0,2.217,5.342,4.614,4.614,0,0,1,6.09,6.09,18.429,18.429,0,0,0,5.342,2.217,4.61,4.61,0,0,1,8.606,0,18.323,18.323,0,0,0,5.342-2.217,4.619,4.619,0,0,1,6.09-6.09,18.429,18.429,0,0,0,2.217-5.342A4.644,4.644,0,0,1,37.457,22.461ZM22.545,29.935a7.484,7.484,0,1,1,7.484-7.484A7.482,7.482,0,0,1,22.545,29.935Z" transform="translate(4.5 1.5)" fill="#fff"/>
  </g>
</svg>
