<svg xmlns="http://www.w3.org/2000/svg" width="14.25" height="19" viewBox="0 0 14.25 19">
  <path id="Icon_awesome-file-alt" data-name="Icon awesome-file-alt" d="M8.313,5.047V0H.891A.888.888,0,0,0,0,.891V18.109A.888.888,0,0,0,.891,19H13.359a.888.888,0,0,0,.891-.891V5.938H9.2A.893.893,0,0,1,8.313,5.047ZM10.688,13.8a.447.447,0,0,1-.445.445H4.008a.447.447,0,0,1-.445-.445v-.3a.447.447,0,0,1,.445-.445h6.234a.447.447,0,0,1,.445.445Zm0-2.375a.447.447,0,0,1-.445.445H4.008a.447.447,0,0,1-.445-.445v-.3a.447.447,0,0,1,.445-.445h6.234a.447.447,0,0,1,.445.445Zm0-2.672v.3a.447.447,0,0,1-.445.445H4.008a.447.447,0,0,1-.445-.445v-.3a.447.447,0,0,1,.445-.445h6.234A.447.447,0,0,1,10.688,8.758ZM14.25,4.524V4.75H9.5V0h.226a.89.89,0,0,1,.631.26L13.99,3.9A.888.888,0,0,1,14.25,4.524Z" fill="#006fff"/>
</svg>
