<svg xmlns="http://www.w3.org/2000/svg" width="20.999" height="21" viewBox="0 0 20.999 21">
  <path id="Icon_material-update" data-name="Icon material-update" d="M4.5,12.807h7.91l-3.2-3.29A8.212,8.212,0,0,1,20.742,9.4a8.021,8.021,0,0,1,0,11.422,8.19,8.19,0,0,1-11.527,0c-1.587-1.563-2.6-2.456-2.6-4.766L4.5,16.831c0,2.31,1.027,3.594,3.08,5.624a10.563,10.563,0,0,0,14.84,0,10.313,10.313,0,0,0,.023-14.677,10.485,10.485,0,0,0-14.758,0L4.5,4.5Z" transform="translate(-4.502 -4.5)" fill="#006fff"/>
</svg>
