<svg xmlns="http://www.w3.org/2000/svg" width="15.75" height="21" viewBox="0 0 15.75 21">
  <path id="Icon_awesome-file-alt" data-name="Icon awesome-file-alt" d="M9.188,5.578V0H.984A.982.982,0,0,0,0,.984V20.016A.982.982,0,0,0,.984,21H14.766a.982.982,0,0,0,.984-.984V6.563H10.172A.987.987,0,0,1,9.188,5.578Zm2.625,9.68a.494.494,0,0,1-.492.492H4.43a.494.494,0,0,1-.492-.492V14.93a.494.494,0,0,1,.492-.492H11.32a.494.494,0,0,1,.492.492Zm0-2.625a.494.494,0,0,1-.492.492H4.43a.494.494,0,0,1-.492-.492V12.3a.494.494,0,0,1,.492-.492H11.32a.494.494,0,0,1,.492.492Zm0-2.953v.328a.494.494,0,0,1-.492.492H4.43a.494.494,0,0,1-.492-.492V9.68a.494.494,0,0,1,.492-.492H11.32A.494.494,0,0,1,11.813,9.68ZM15.75,5v.25H10.5V0h.25a.984.984,0,0,1,.7.287l4.015,4.02A.981.981,0,0,1,15.75,5Z" fill="#c4c4c4"/>
</svg>
