<svg xmlns="http://www.w3.org/2000/svg" xmlns:xlink="http://www.w3.org/1999/xlink" width="45.045" height="54.06" viewBox="0 0 45.045 54.06">
  <defs>
    <filter id="Icon_awesome-file-alt" x="0" y="0" width="45.045" height="54.06" filterUnits="userSpaceOnUse">
      <feOffset dy="3" input="SourceAlpha"/>
      <feGaussianBlur stdDeviation="3" result="blur"/>
      <feFlood flood-opacity="0.161"/>
      <feComposite operator="in" in2="blur"/>
      <feComposite in="SourceGraphic"/>
    </filter>
  </defs>
  <g transform="matrix(1, 0, 0, 1, 0, 0)" filter="url(#Icon_awesome-file-alt)">
    <path id="Icon_awesome-file-alt-2" data-name="Icon awesome-file-alt" d="M15.776,9.578V0H1.69A1.686,1.686,0,0,0,0,1.69V34.369a1.686,1.686,0,0,0,1.69,1.69H25.354a1.686,1.686,0,0,0,1.69-1.69v-23.1H17.466A1.7,1.7,0,0,1,15.776,9.578ZM20.284,26.2a.848.848,0,0,1-.845.845H7.606a.848.848,0,0,1-.845-.845v-.563a.848.848,0,0,1,.845-.845H19.438a.848.848,0,0,1,.845.845Zm0-4.507a.848.848,0,0,1-.845.845H7.606a.848.848,0,0,1-.845-.845v-.563a.848.848,0,0,1,.845-.845H19.438a.848.848,0,0,1,.845.845Zm0-5.071v.563a.848.848,0,0,1-.845.845H7.606a.848.848,0,0,1-.845-.845v-.563a.848.848,0,0,1,.845-.845H19.438A.848.848,0,0,1,20.284,16.621Zm6.761-8.036v.43H18.03V0h.43a1.689,1.689,0,0,1,1.2.493l6.895,6.9A1.685,1.685,0,0,1,27.045,8.585Z" transform="translate(9 6)" fill="#fff"/>
  </g>
</svg>
