<svg xmlns="http://www.w3.org/2000/svg" width="92.725" height="88.928" viewBox="0 0 92.725 88.928">
  <path id="Icon_material-access-alarm" data-name="Icon material-access-alarm" d="M95.725,19.834,74.4,2.79,68.418,9.546,89.744,26.589ZM30.261,9.546,24.327,2.79,3,19.79l5.981,6.756,21.28-17ZM51.681,29.9H44.726V56.394L66.749,68.978l3.477-5.431L51.681,53.082ZM49.363,12.239c-23.042,0-41.726,17.794-41.726,39.739S26.274,91.718,49.363,91.718c23.042,0,41.726-17.794,41.726-39.739S72.4,12.239,49.363,12.239Zm0,70.648c-17.942,0-32.454-13.82-32.454-30.908S31.42,21.07,49.363,21.07s32.454,13.82,32.454,30.908S67.3,82.887,49.363,82.887Z" transform="translate(-3 -2.79)" fill="#999"/>
</svg>
