<svg xmlns="http://www.w3.org/2000/svg" width="77.812" height="88.927" viewBox="0 0 77.812 88.927">
  <path id="Icon_metro-file-empty" data-name="Icon metro-file-empty" d="M78.646,21.822a78.756,78.756,0,0,0-7.571-8.659,78.763,78.763,0,0,0-8.659-7.571c-4.479-3.284-6.651-3.664-7.9-3.664H11.446A6.955,6.955,0,0,0,4.5,8.875V83.908a6.955,6.955,0,0,0,6.947,6.947H75.363a6.955,6.955,0,0,0,6.947-6.947V29.718c0-1.245-.38-3.417-3.664-7.9Zm-11.5-4.729a75.8,75.8,0,0,1,6.3,7.067H60.078V10.791A75.723,75.723,0,0,1,67.145,17.093Zm9.607,66.815A1.408,1.408,0,0,1,75.363,85.3H11.446a1.408,1.408,0,0,1-1.389-1.389V8.875a1.408,1.408,0,0,1,1.389-1.389H54.52V26.939A2.779,2.779,0,0,0,57.3,29.718H76.752Z" transform="translate(-4.499 -1.928)" fill="#d8d8d8"/>
</svg>
