<svg id="Icon_ionic-ios-volume-high" data-name="Icon ionic-ios-volume-high" xmlns="http://www.w3.org/2000/svg" width="21.153" height="17.672" viewBox="0 0 21.153 17.672">
  <path id="Path_1" data-name="Path 1" d="M12.869,10.206a.855.855,0,0,0-.381-.088.885.885,0,0,0-.552.193l-3.6,2.905H5.419a.886.886,0,0,0-.884.884v4.418a.886.886,0,0,0,.884.884H8.335l3.6,2.9a.9.9,0,0,0,.552.193.855.855,0,0,0,.381-.088.883.883,0,0,0,.5-.8v-10.6A.885.885,0,0,0,12.869,10.206Z" transform="translate(-4.535 -7.474)" fill="#006fff"/>
  <path id="Path_2" data-name="Path 2" d="M30.17,15.587a12.057,12.057,0,0,0-3.612-8.643.664.664,0,1,0-.933.944,10.732,10.732,0,0,1,3.214,7.7h0a10.755,10.755,0,0,1-3.214,7.7.663.663,0,0,0-.006.939.648.648,0,0,0,.469.2.662.662,0,0,0,.464-.193,12.031,12.031,0,0,0,3.618-8.643Z" transform="translate(-9.017 -6.752)" fill="#006fff"/>
  <path id="Path_3" data-name="Path 3" d="M26.047,16.213h0a8.97,8.97,0,0,0-2.585-6.346.664.664,0,0,0-.944.933,7.667,7.667,0,0,1,2.2,5.418h0a7.667,7.667,0,0,1-2.2,5.418.666.666,0,0,0,.469,1.132.648.648,0,0,0,.469-.2,9.02,9.02,0,0,0,2.59-6.357Z" transform="translate(-8.352 -7.378)" fill="#006fff"/>
  <path id="Path_4" data-name="Path 4" d="M19.9,12.778a.664.664,0,1,0-.944.933,4.42,4.42,0,0,1,1.27,3.126h0a4.439,4.439,0,0,1-1.27,3.126A.666.666,0,0,0,19.43,21.1a.648.648,0,0,0,.469-.2,5.732,5.732,0,0,0,1.651-4.054h0A5.72,5.72,0,0,0,19.9,12.778Z" transform="translate(-7.588 -8.002)" fill="#006fff"/>
</svg>
