<svg xmlns="http://www.w3.org/2000/svg" width="11.538" height="15" viewBox="0 0 11.538 15">
  <path id="Icon_ionic-ios-lock" data-name="Icon ionic-ios-lock" d="M16.846,8.567h-.865V6.883a3.462,3.462,0,1,0-6.923-.047V8.567H8.192A1.447,1.447,0,0,0,6.75,10.009v6.923a1.447,1.447,0,0,0,1.442,1.442h8.654a1.447,1.447,0,0,0,1.442-1.442V10.009A1.447,1.447,0,0,0,16.846,8.567Zm-3.822,4.5v2.481a.517.517,0,0,1-.48.519.505.505,0,0,1-.53-.5v-2.5a1.154,1.154,0,1,1,1.01,0Zm1.947-4.5h-4.9V6.836a2.452,2.452,0,0,1,4.9,0Z" transform="translate(-6.75 -3.374)" fill="gray"/>
</svg>
