<svg xmlns="http://www.w3.org/2000/svg" width="24.311" height="28" viewBox="0 0 24.311 28">
  <path id="Icon_metro-fire" data-name="Icon metro-fire" d="M11.545,29.928c-1.866-3.883-.872-6.108.562-8.2a13.07,13.07,0,0,0,1.975-4.568,5.367,5.367,0,0,1,.741,4.115,10.387,10.387,0,0,0,2.264-7.778c4.93,3.446,7.038,10.906,4.2,16.435,15.1-8.546,3.757-21.333,1.782-22.773.658,1.44.783,3.879-.547,5.062C20.267,3.678,14.7,1.928,14.7,1.928c.658,4.4-2.387,9.219-5.324,12.817A9.517,9.517,0,0,0,8.24,10.1c-.207,3.19-2.645,5.79-3.305,8.986C4.041,23.411,5.6,26.58,11.545,29.928Z" transform="translate(-4.701 -1.928)" fill="#006fff"/>
</svg>
